<svg width="28" height="28" viewBox="0 0 28 28" fill="none" xmlns="http://www.w3.org/2000/svg">
<mask id="mask0" mask-type="alpha" maskUnits="userSpaceOnUse" x="2" y="2" width="24" height="24">
<path d="M23.3333 2.3335H4.66668C3.38334 2.3335 2.33334 3.3835 2.33334 4.66683V23.3335C2.33334 24.6168 3.38334 25.6668 4.66668 25.6668H23.3333C24.6167 25.6668 25.6667 24.6168 25.6667 23.3335V4.66683C25.6667 3.3835 24.6167 2.3335 23.3333 2.3335ZM22.1667 4.66683V8.16683H19.8333C19.1333 8.16683 18.6667 8.6335 18.6667 9.3335V11.6668H22.1667V15.1668H18.6667V23.3335H15.1667V15.1668H12.8333V11.6668H15.1667V8.75016C15.1667 6.5335 17.0333 4.66683 19.25 4.66683H22.1667Z" fill="#050000"/>
</mask>
<g mask="url(#mask0)">
<rect width="28" height="28" fill="white"/>
</g>
</svg>
