<svg width="28" height="28" viewBox="0 0 28 28" fill="none" xmlns="http://www.w3.org/2000/svg">
<mask id="mask0" mask-type="alpha" maskUnits="userSpaceOnUse" x="2" y="2" width="24" height="24">
<path d="M23.3333 2.3335H4.66666C3.38333 2.3335 2.33333 3.3835 2.33333 4.66683V23.3335C2.33333 24.6168 3.38333 25.6668 4.66666 25.6668H23.3333C24.6167 25.6668 25.6667 24.6168 25.6667 23.3335V4.66683C25.6667 3.3835 24.6167 2.3335 23.3333 2.3335ZM9.33333 22.1668H5.83333V11.6668H9.33333V22.1668ZM7.58333 9.6835C6.41666 9.6835 5.48333 8.75016 5.48333 7.5835C5.48333 6.41683 6.41666 5.4835 7.58333 5.4835C8.75 5.4835 9.68333 6.41683 9.68333 7.5835C9.68333 8.75016 8.75 9.6835 7.58333 9.6835ZM22.1667 22.1668H18.6667V15.9835C18.6667 15.0502 17.85 14.2335 16.9167 14.2335C15.9833 14.2335 15.1667 15.0502 15.1667 15.9835V22.1668H11.6667V11.6668H15.1667V13.0668C15.75 12.1335 17.0333 11.4335 18.0833 11.4335C20.3 11.4335 22.1667 13.3002 22.1667 15.5168V22.1668Z" fill="#050000"/>
</mask>
<g mask="url(#mask0)">
<rect width="28" height="28" fill="white"/>
</g>
</svg>
