<svg width="28" height="28" viewBox="0 0 28 28" fill="none" xmlns="http://www.w3.org/2000/svg">
<mask id="mask0" mask-type="alpha" maskUnits="userSpaceOnUse" x="2" y="2" width="24" height="24">
<path d="M23.3333 2.3335H4.66668C3.38334 2.3335 2.33334 3.3835 2.33334 4.66683V23.3335C2.33334 24.6168 3.38334 25.6668 4.66668 25.6668H23.3333C24.6167 25.6668 25.6667 24.6168 25.6667 23.3335V4.66683C25.6667 3.3835 24.6167 2.3335 23.3333 2.3335ZM20.65 10.8502C20.5333 16.2168 17.15 19.9502 12.0167 20.1835C9.91668 20.3002 8.40001 19.6002 7.00001 18.7835C8.51668 19.0169 10.5 18.4335 11.55 17.5002C10.0333 17.3835 9.10001 16.5668 8.63334 15.2835C9.10001 15.4002 9.56668 15.2835 9.91668 15.2835C8.51668 14.8168 7.58334 14.0002 7.46668 12.1335C7.81668 12.3668 8.28334 12.4835 8.75001 12.4835C7.70001 11.9002 7.00001 9.6835 7.81668 8.2835C9.33334 9.91683 11.2 11.3168 14.2333 11.5502C13.4167 8.2835 17.8501 6.5335 19.6001 8.75016C20.4167 8.6335 21.0001 8.2835 21.5834 8.05016C21.3501 8.86683 20.8834 9.3335 20.3001 9.80016C20.8834 9.6835 21.4667 9.56683 21.9334 9.3335C21.8167 9.91683 21.2333 10.3835 20.65 10.8502Z" fill="#050000"/>
</mask>
<g mask="url(#mask0)">
<rect width="28" height="28" fill="white"/>
</g>
</svg>
