<svg width="28" height="28" viewBox="0 0 28 28" fill="none" xmlns="http://www.w3.org/2000/svg">
<path d="M12 17L17.11 14L12 11V17Z" fill="white"/>
<path d="M23.66 2.33008H4.33C3.79957 2.33008 3.29086 2.54079 2.91579 2.91586C2.54072 3.29094 2.33 3.79965 2.33 4.33008L2.33 23.6601C2.33 24.1905 2.54072 24.6992 2.91579 25.0743C3.29086 25.4494 3.79957 25.6601 4.33 25.6601H23.66C24.1904 25.6601 24.6991 25.4494 25.0742 25.0743C25.4493 24.6992 25.66 24.1905 25.66 23.6601V4.33008C25.66 3.79965 25.4493 3.29094 25.0742 2.91586C24.6991 2.54079 24.1904 2.33008 23.66 2.33008V2.33008ZM23.81 14.0101C23.82 15.6225 23.6828 17.2326 23.4 18.8201C23.2919 19.2408 23.0752 19.6257 22.7716 19.9363C22.468 20.2469 22.0881 20.4724 21.67 20.5901C20.14 21.0001 14 21.0001 14 21.0001C14 21.0001 7.87 21.0001 6.32 20.5701C5.9031 20.4533 5.52404 20.2293 5.22053 19.9205C4.91703 19.6118 4.69964 19.2289 4.59 18.8101C4.30678 17.2193 4.16954 15.6059 4.18 13.9901C4.17032 12.3776 4.30755 10.7676 4.59 9.18008C4.70111 8.75813 4.91988 8.37226 5.22489 8.06025C5.52989 7.74823 5.91069 7.52075 6.33 7.40008C7.86 6.99008 14 6.99008 14 6.99008C14 6.99008 20.15 6.99008 21.68 7.42008C22.0969 7.5369 22.476 7.76084 22.7795 8.06961C23.083 8.37838 23.3004 8.76123 23.41 9.18008C23.6946 10.774 23.8285 12.3911 23.81 14.0101Z" fill="white"/>
</svg>
